<?xml version="1.0" encoding="UTF-8"?>
<svg width="27px" height="27px" viewBox="0 0 27 27" version="1.1" xmlns="http://www.w3.org/2000/svg" xmlns:xlink="http://www.w3.org/1999/xlink">
    <!-- Generator: Sketch 46.1 (44463) - http://www.bohemiancoding.com/sketch -->
    <title>Group 2</title>
    <desc>Created with Sketch.</desc>
    <defs></defs>
    <g id="Welcome" stroke="none" stroke-width="1" fill="none" fill-rule="evenodd">
        <g id="Menu" transform="translate(-709.000000, -21.000000)" fill-rule="nonzero" fill="#FFFFFF">
            <g id="Group-5" transform="translate(-6.000000, -3.000000)">
                <g id="Group-2" transform="translate(715.000000, 24.000000)">
                    <path d="M10.7068966,21.4137931 C4.79364087,21.4137931 0,16.6201522 0,10.7068966 C0,4.79364087 4.79364087,0 10.7068966,0 C16.6201522,0 21.4137931,4.79364087 21.4137931,10.7068966 C21.4137931,16.6201522 16.6201522,21.4137931 10.7068966,21.4137931 Z M10.7068966,18.9343013 C15.2507667,18.9343013 18.9343013,15.2507667 18.9343013,10.7068966 C18.9343013,6.1630264 15.2507667,2.47949183 10.7068966,2.47949183 C6.1630264,2.47949183 2.47949183,6.1630264 2.47949183,10.7068966 C2.47949183,15.2507667 6.1630264,18.9343013 10.7068966,18.9343013 Z" id="Oval" transform="translate(10.706897, 10.706897) scale(-1, 1) translate(-10.706897, -10.706897) "></path>
                    <polygon id="Line-2" transform="translate(21.413793, 21.413793) scale(-1, 1) translate(-21.413793, -21.413793) " points="25.4637931 15.8275862 15.8275862 25.4637931 17.3637931 27 27 17.3637931"></polygon>
                </g>
            </g>
        </g>
    </g>
</svg>